<svg width="24" height="24" viewBox="0 0 24 24" fill="none" xmlns="http://www.w3.org/2000/svg">
<g id="arrow-swap-svgrepo-com 1">
<g id="&#240;&#159;&#148;&#141;-System-Icons">
<g id="ic_fluent_arrow_swap_24_filled">
<path id="&#240;&#159;&#142;&#168;-Color" d="M2.29154 8.79283L6.28731 4.79283C6.64758 4.43219 7.21473 4.40413 7.60719 4.70888L7.70144 4.792L11.7067 8.792C12.0975 9.18227 12.0979 9.81543 11.7076 10.2062C11.3474 10.5669 10.7801 10.595 10.3877 10.2903L10.2934 10.2071L8.00002 7.91657L8.00003 18.5002C8.00003 19.0131 7.61399 19.4358 7.11666 19.4935L7.00003 19.5002C6.4872 19.5002 6.06453 19.1142 6.00676 18.6169L6.00003 18.5002L6.00002 7.90957L3.7065 10.2063C3.34621 10.567 2.77899 10.595 2.38654 10.2902L2.29229 10.207C1.93162 9.84675 1.90359 9.27954 2.2084 8.88709L2.29154 8.79283L6.28731 4.79283L2.29154 8.79283ZM16.8834 4.50951L17 4.50278C17.5129 4.50278 17.9355 4.88882 17.9933 5.38616L18 5.50278L18 16.0866L20.2926 13.7928C20.6529 13.4321 21.2201 13.4041 21.6126 13.709L21.7068 13.7921C22.0675 14.1524 22.0955 14.7197 21.7906 15.1121L21.7075 15.2063L17.7112 19.2063C17.3509 19.567 16.7837 19.595 16.3913 19.2902L16.297 19.207L12.2933 15.207C11.9026 14.8167 11.9023 14.1835 12.2926 13.7928C12.6529 13.4321 13.2201 13.4041 13.6126 13.709L13.7068 13.7921L16 16.0826L16 5.50278C16 4.98995 16.3861 4.56728 16.8834 4.50951L17 4.50278L16.8834 4.50951Z" fill="#333333"/>
</g>
</g>
</g>
</svg>
