<svg width="24" height="24" viewBox="0 0 24 24" fill="none" xmlns="http://www.w3.org/2000/svg">
<g id="bnb w">
<path id="Path 2022" d="M7.34364 10.1032L11.998 5.43413L16.6548 10.1067L19.3623 7.3888L11.998 0L4.63538 7.38667L7.34364 10.1032Z" fill="white"/>
<path id="Rectangle 1037" d="M5.43359 11.999L2.7168 9.28223L-0.000189142 11.9992L2.71661 14.716L5.43359 11.999Z" fill="white"/>
<path id="Path 2023" d="M7.34422 13.8964L11.9986 18.5655L16.6552 13.8943L19.365 16.6095V16.6111L11.9986 23.9999L4.63596 16.6132L4.63196 16.6098L7.34422 13.8964Z" fill="white"/>
<path id="Rectangle 1038" d="M21.2835 14.718L24.0005 12.001L21.2837 9.28418L18.5667 12.0012L21.2835 14.718Z" fill="white"/>
<path id="Path 2024" d="M14.7544 11.9983L11.9986 9.24127L9.9613 11.2786L9.72743 11.5127L9.24397 11.9957L9.24023 11.9994L9.24397 12.0034L11.9986 14.7581L14.7554 11.9999V11.9983H14.7544Z" fill="white"/>
</g>
</svg>
