<svg width="18" height="18" viewBox="0 0 18 18" fill="none" xmlns="http://www.w3.org/2000/svg">
<g id="suitcase-bag-svgrepo-com 1" clip-path="url(#clip0_925_15336)">
<g id="Group">
<g id="Group_2">
<g id="Group_3">
<path id="Vector" d="M10.2003 6.4502H9.90029H8.10028H7.80029V8.25021H8.10028H9.90029H10.2003V6.4502Z" fill="white"/>
<path id="Vector_2" d="M9.59942 8.84985H8.39941V16.3498H9.59942V8.84985Z" fill="white"/>
<path id="Vector_3" d="M13.8003 4.9502V5.72598L15.3003 7.22597L16.0761 6.45019L14.5761 4.9502H13.8003Z" fill="white"/>
<path id="Vector_4" d="M16.7955 3.15019H12.9V1.35018C12.9 0.853974 12.4962 0.450195 12 0.450195H6C5.50379 0.450195 5.10001 0.85401 5.10001 1.35018V3.15019H1.20451C0.540314 3.15019 0 3.69051 0 4.3547V15.1457C0 15.8099 0.540314 16.3502 1.20451 16.3502H1.23032C1.36982 17.0339 1.97583 17.5502 2.70003 17.5502C3.42424 17.5502 4.03021 17.0339 4.16972 16.3502H7.80001V8.85021H7.50003C7.33443 8.85021 7.20004 8.71582 7.20004 8.55023V6.15021C7.20004 5.98462 7.33443 5.85023 7.50003 5.85023H7.80001V3.75023H8.40001V5.85023H9.60002V3.75023H10.2V5.85023H10.5C10.6656 5.85023 10.8 5.98462 10.8 6.15021V8.55023C10.8 8.71582 10.6656 8.85021 10.5 8.85021H10.2V16.3502H13.8303C13.9698 17.0339 14.5758 17.5502 15.3 17.5502C16.0242 17.5502 16.6302 17.0339 16.7697 16.3502H16.7955C17.4597 16.3502 18 15.8099 18 15.1457V4.3547C18 3.69051 17.4597 3.15019 16.7955 3.15019ZM2.7 16.9502C2.3088 16.9502 1.97518 16.6994 1.8513 16.3502H3.5487C3.42481 16.6994 3.0912 16.9502 2.7 16.9502ZM10.2 3.15019H9.59999H8.39998H7.80001H5.70002V1.35018C5.70002 1.18488 5.83473 1.0502 6 1.0502H12C12.1653 1.0502 12.3 1.18491 12.3 1.35018V3.15019H11.5758H10.2ZM15.3 16.9502C14.9088 16.9502 14.5752 16.6994 14.4513 16.3502H16.1487C16.0248 16.6994 15.6912 16.9502 15.3 16.9502ZM16.7121 6.66229L15.5121 7.8623C15.4536 7.92081 15.3768 7.95019 15.3 7.95019C15.2232 7.95019 15.1464 7.92077 15.0879 7.8623L13.2879 6.06229C13.2315 6.00588 13.2 5.92968 13.2 5.85019V4.77439L12.1758 3.7502H12.6C12.7152 3.7502 12.8118 3.68329 12.8622 3.58821L13.6242 4.3502H14.7C14.7795 4.3502 14.856 4.38169 14.9121 4.43809L16.7121 6.2381C16.8294 6.35541 16.8294 6.54498 16.7121 6.66229Z" fill="white"/>
</g>
</g>
</g>
</g>
<defs>
<clipPath id="clip0_925_15336">
<rect width="18" height="18" fill="white"/>
</clipPath>
</defs>
</svg>
